<?xml version="1.0" encoding="UTF-8" standalone="no"?>
<svg viewBox="0 0 281.05072 392.73718" xmlns="http://www.w3.org/2000/svg">
<path d="m250.67447,270.77604c.018,60.50823-49.02851,109.56941-109.53675,109.56941s-109.55478-49.06118-109.53674-109.56941c-.01801-60.50823 49.02851-109.5694 109.53674-109.5694s109.55478,49.06117 109.53675,109.5694z" fill="#784421" stroke="#000" stroke-linecap="round" stroke-linejoin="round" stroke-width="4"/>
<path d="m244.05219,233.19518c.0768,1.68161.125,3.39329.125,5.09375 0,60.46428-49.06696,109.53125-109.53125,109.53125-47.26217,0-87.5912-29.99927-102.9375-71.96875 2.65351,58.11219 50.67363,104.46875 109.4375,104.46875 60.46429,0 109.53125-49.06697 109.53125-109.53125 0-13.20218-2.33815-25.87003-6.625-37.59375z" fill-opacity=".31373"/>
<path d="m149.318,381.34567c0,9.09078 14.66533,9.38135 32.73511,9.38135s32.73512.69349 32.73512-9.38135c0-17.71594-14.66534-32.0941-32.73512-32.0941s-32.73511,14.37816-32.73511,32.0941z" fill="#502d16" stroke="#000" stroke-linecap="round" stroke-linejoin="round" stroke-width="4"/>
<path d="m218.81402,237.38856c0,45.17448-55.12119,81.83781-81.8378,81.83781-25.71826,0-81.83781-36.66333-81.83781-81.83781s24.62504-81.8378 81.83781-81.8378c57.22259,0 81.8378,36.66334 81.8378,81.8378z" fill-opacity=".31373"/>
<path d="m194.64354,390.12608c0-16.36756-9.44283-26.43991-9.44283-26.43991s3.77713,13.84948 3.14761,26.43991h6.29522z" fill-opacity=".31373" fill-rule="evenodd" stroke="#000" stroke-linejoin="round" stroke-width="4"/>
<path d="m138.47597,140.47979c-30.57659,3.74195-43.77428,8.07458-57.80962,22.48729-12.04448-39.28031-53.67366-29.57947-53.67366-29.57947s.03395,47.00718 41.67365,46.68366c-13.58264,21.68448-9.37788,32.42072-9.37788,42.22102 0,45.17448 56.1255,81.84375 81.84375,81.84375 26.71661,0 81.84375-36.66927 81.84375-81.84375 0-9.8003 1.96747-25.45725-11.16722-42.22103 49.23125-.94175 42.79912-47.31628 42.79912-47.31628s-39.56411-9.32203-57.93048,29.31742c-17.53503-14.91097-24.41894-18.46125-55.54517-21.59261-.88946-.0895-1.77818-.0178-2.65625,0z" fill="#784421" stroke="#000" stroke-linecap="round" stroke-linejoin="round" stroke-width="4"/>
<path d="m137.50819,210.30576c.004,12.51895-10.14383,22.66953-22.66277,22.66953s-22.66651-10.15058-22.66277-22.66953 10.14382-22.66953 22.66277-22.66953 22.6665,10.15059 22.66277,22.66953z" fill="#fff" stroke="#000" stroke-linecap="round" stroke-linejoin="round" stroke-width="4"/>
<path d="m190.24039,210.30576c.004,12.51895-10.14383,22.66953-22.66277,22.66953s-22.66651-10.15058-22.66278-22.66953 10.14383-22.66953 22.66278-22.66953 22.6665,10.15059 22.66277,22.66953z" fill="#fff" stroke="#000" stroke-linecap="round" stroke-linejoin="round" stroke-width="4"/>
<path d="m170.0957,214.30576c.001,4.17298-3.38127,7.55651-7.55425,7.55651s-7.5555-3.38353-7.55425-7.55651 3.38127-7.55651 7.55425-7.55651 7.5555,3.38353 7.55425,7.55651z"/>
<path d="m128.06536,214.30576c.001,4.17298-3.38127,7.55651-7.55425,7.55651s-7.5555-3.38353-7.55426-7.55651 3.38128-7.55651 7.55426-7.55651 7.5555,3.38353 7.55425,7.55651z"/>
<path d="m219.69472,195.47979-1.875,2.65625c.24888,3.07548.34375,6.20264.34375,9.375 0,45.17449-55.12714,81.84375-81.84375,81.84375-20.70581,2e-005-61.09673-23.75565-76.0625-56.59375 7.61581,40.24628 57.1719,71.37501 80.875,71.375 26.71661,0 81.84375-36.6693 81.84375-81.84375 0-9.39155-1.07538-18.41026-3.28125-26.8125z" fill-opacity=".31373"/>
<path d="m134.32019,381.34567c0,9.09078-14.66533,9.38135-32.73511,9.38135s-32.73512.69349-32.73512-9.38135c0-17.71594 14.66534-32.0941 32.73512-32.0941s32.73511,14.37816 32.73511,32.0941z" fill="#502d16" stroke="#000" stroke-linecap="round" stroke-linejoin="round" stroke-width="4"/>
<path d="m88.99465,390.12608c0-16.36756 9.44283-26.43991 9.44283-26.43991s-3.77713,13.84948-3.14761,26.43991h-6.29522z" fill-opacity=".31373" fill-rule="evenodd" stroke="#000" stroke-linejoin="round" stroke-width="4"/>
<path d="m157.73316,274.9371c-2.29272,3.97309-6.50025,5.8386-9.39677,4.16629s-3.38472-6.2489-1.09029-10.22099 6.50026-5.83861 9.39679-4.1663 3.38471,6.2489 1.09027,10.221z"/>
<path d="m124.99611,274.9371c2.29272,3.97309 6.50025,5.8386 9.39677,4.16629s3.38472-6.2489 1.09029-10.22099-6.50026-5.83861-9.39679-4.1663-3.38471,6.2489-1.09027,10.221z"/>
<path d="m161.73838,149.66139c7.89529-17.69758 14.85423-33.49694 50.68006-29.83588 17.98753-.0539 19.62738-9.03065 12.52542-22.36683-28.46933-48.8989 15.22841-79.5686 54.10686-94.88032-40.62199,3.28198-108.13948,42.18664-69.3163,100.24836-40.26984-1.07326-63.15231,14.33849-67.99517,43.63121 6.66638.52015 13.33275,1.03702 19.99913,3.20346z" fill="#784421" stroke="#000" stroke-width="4"/>
<path d="m142.18913,145.90244c17.98812-29.34599 44.3261-40.34808 77.49711-27.51938-24.47884-2.26789-47.41223-3.28849-56.93666,30.99884l-20.56045-3.47946z" fill-opacity=".31373"/>
<path d="m211.22677,104.80027c-29.51264-44.7985-4.33018-73.73508 38.47095-96.00963-29.92826,24.12152-56.05728,44.79846-33.27066,88.34899 1.6649,2.59989 3.73525,7.96073 0,7.94022l-5.20029-.27958z" fill-opacity=".31373"/>
<path d="m119.31235,149.5575c-7.89529-17.69758-14.85424-33.97141-50.68007-30.31035-17.98753-.0539-19.62738-9.03065-12.52542-22.36683 28.46933-48.8989-15.22841-79.5686-54.10686-94.88032 40.62199,3.28198 108.13948,42.18664 69.3163,100.24836 40.26984-1.07326 63.15231,14.33849 67.99517,43.63121-6.66637.60159-13.33275,1.81112-19.99912,3.67793z" fill="#784421" stroke="#000" stroke-width="4"/>
<path d="m137.91265,144.37514c-17.98812-29.34599-43.37716-39.39914-76.54817-26.57044 24.47884-2.26789 47.41223-2.81401 56.93666,31.47332l19.61151-4.90288z" fill-opacity=".31373"/>
<path d="m69.82395,104.22191c29.51264-44.7985 4.33018-73.73508-38.47095-96.00963 29.92826,24.12152 56.05728,44.79846 33.27066,88.34898-1.6649,2.5999-3.73525,7.96073 0,7.94022l5.20029-.27958z" fill-opacity=".31373"/>
<path d="m204.12941,170.64754c5.19806-20.18359 22.25592-34.21704 42.94432-31.7609-2.30142,27.8271-22.81353,36.02666-42.94432,31.7609z" fill-opacity=".31373"/>
<path d="m78.17906,172.2002c-5.19806-20.18359-22.25592-34.21704-42.94432-31.7609 2.30142,27.8271 22.81353,36.02666 42.94432,31.7609z" fill-opacity=".31373"/>
<path d="m119.31235,149.5575c-7.89529-17.69758-14.85424-33.97141-50.68007-30.31035-17.98753-.0539-19.62738-9.03065-12.52542-22.36683 28.46933-48.8989-15.22841-79.5686-54.10686-94.88032 40.62199,3.28198 108.13948,42.18664 69.3163,100.24836 40.26984-1.07326 63.15231,14.33849 67.99517,43.63121-6.66637.60159-13.33275,1.81112-19.99912,3.67793z" fill="#784421" stroke="#000" stroke-width="4"/>
<path d="m137.91265,144.37514c-17.98812-29.34599-43.37716-39.39914-76.54817-26.57044 24.47884-2.26789 47.41223-2.81401 56.93666,31.47332l19.61151-4.90288z" fill-opacity=".31373"/>
<path d="m69.82395,104.22191c29.51264-44.7985 4.33018-73.73508-38.47095-96.00963 29.92826,24.12152 56.05728,44.79846 33.27066,88.34898-1.6649,2.5999-3.73525,7.96073 0,7.94022l5.20029-.27958z" fill-opacity=".31373"/>
<path d="m119.31235,149.5575c-7.89529-17.69758-14.85424-33.97141-50.68007-30.31035-17.98753-.0539-19.62738-9.03065-12.52542-22.36683 28.46933-48.8989-15.22841-79.5686-54.10686-94.88032 40.62199,3.28198 108.13948,42.18664 69.3163,100.24836 40.26984-1.07326 63.15231,14.33849 67.99517,43.63121-4.63733,3.13789-8.82246,7.44898-19.99912,3.67793z" fill="#784421" stroke="#000" stroke-width="4"/>
<path d="m137.91265,144.37514c-17.98812-29.34599-43.37716-39.39914-76.54817-26.57044 24.47884-2.26789 47.41223-2.81401 56.93666,31.47332 7.67574,1.02236 14.46116-.0327 19.61151-4.90288z" fill-opacity=".31373"/>
<path d="m69.82395,104.22191c29.51264-44.7985 4.33018-73.73508-38.47095-96.00963 29.92826,24.12152 56.05728,44.79846 33.27066,88.34898-1.6649,2.5999-3.73525,7.96073 0,7.94022l5.20029-.27958z" fill-opacity=".31373"/>
<path d="m161.73838,149.66139c7.89529-17.69758 14.85423-33.49694 50.68006-29.83588 17.98753-.0539 19.62738-9.03065 12.52542-22.36683-28.46933-48.8989 15.22841-79.5686 54.10686-94.88032-40.62199,3.28198-108.13948,42.18664-69.3163,100.24836-40.26984-1.07326-63.15231,14.33849-67.99517,43.63121 6.66638.52015 13.33275,1.03702 19.99913,3.20346z" fill="#784421" stroke="#000" stroke-width="4"/>
<path d="m142.18913,145.90244c17.98812-29.34599 44.3261-40.34808 77.49711-27.51938-24.47884-2.26789-47.41223-3.28849-56.93666,30.99884l-20.56045-3.47946z" fill-opacity=".31373"/>
<path d="m211.22677,104.80027c-29.51264-44.7985-4.33018-73.73508 38.47095-96.00963-29.92826,24.12152-56.05728,44.79846-33.27066,88.34899 1.6649,2.59989 3.73525,7.96073 0,7.94022l-5.20029-.27958z" fill-opacity=".31373"/>
<path d="m161.73838,149.66139c7.89529-17.69758 14.85423-33.49694 50.68006-29.83588 17.98753-.0539 19.62738-9.03065 12.52542-22.36683-28.46933-48.8989 15.22841-79.5686 54.10686-94.88032-40.62199,3.28198-108.13948,42.18664-69.3163,100.24836-40.26984-1.07326-63.15231,14.33849-67.99517,43.63121 6.66638,7.61305 13.33275,5.63824 19.99913,3.20346z" fill="#784421" stroke="#000" stroke-width="4"/>
<path d="m142.18913,145.90244c17.98812-29.34599 44.3261-40.34808 77.49711-27.51938-24.47884-2.26789-47.41223-3.28849-56.93666,30.99884-6.85348,1.01105-13.70697,2.0893-20.56045-3.47946z" fill-opacity=".31373"/>
<path d="m211.22677,104.80027c-29.51264-44.7985-4.33018-73.73508 38.47095-96.00963-29.92826,24.12152-56.05728,44.79846-33.27066,88.34899 1.6649,2.59989 3.73525,7.96073 0,7.94022l-5.20029-.27958z" fill-opacity=".31373"/>
</svg>
